<svg viewBox="0 0 438 516" xmlns="http://www.w3.org/2000/svg">
<path d="m 260,278 0,0 0,-2 -1,-1 0,-1 0,-1 0,0 -1,0 -1,0 0,0 -1,-2 0,-1 0,0 0,-2 2,-3 1,0 2,0 1,-1 0,1 1,1 0,1 0,0 0,0 0,0 0,0 0,0 1,0 1,1 1,0 1,-1 1,0 1,0 0,0 1,0 0,0 1,0 2,-1 1,0 0,0 0,1 1,1 0,1 1,0 1,-1 2,0 0,0 1,0 0,0 0,1 1,0 -1,1 0,0 0,0 -1,2 0,1 -1,2 -3,2 0,1 0,2 0,0 -3,1 -3,1 -2,0 0,0 1,-2 0,0 0,1 2,-1 1,-1 0,0 0,0 0,0 0,0 0,-1 -1,-1 -2,0 -1,0 0,1 -1,-1 -2,0 -1,-1 0,-1 0,0 0,1 0,2 1,1 0,1 -2,-1 -1,-1 z" fill="rgba(92,61,26,.06)" stroke="#5C3D1A" stroke-width="0.7" stroke-linejoin="round"/>
<path d="m 323,155 -1,-3 -1,-2 1,-1 1,0 1,1 0,-1 0,0 0,-1 0,-1 0,-1 -1,0 0,0 -1,1 -1,2 1,0 0,1 -1,0 -1,0 0,0 0,1 -2,0 -1,-2 0,-1 0,-1 2,1 1,0 1,-1 1,-2 1,-2 1,-3 0,-2 -2,-2 0,0 1,0 1,0 0,-1 1,0 1,0 0,0 1,0 1,0 1,0 1,0 0,-1 1,0 0,1 1,0 1,1 1,-1 1,1 1,-1 1,0 1,-1 1,0 0,-1 1,0 0,2 2,0 0,2 0,0 0,1 0,1 0,0 0,1 -1,0 -1,1 0,0 0,2 -1,0 0,3 1,2 -1,0 0,0 -1,0 0,1 1,1 -1,1 0,0 1,1 0,1 -1,1 0,0 -1,1 0,0 0,1 0,1 -1,1 0,1 0,0 0,1 0,0 1,1 0,1 1,1 1,1 0,1 1,0 -1,0 0,1 0,0 0,1 1,0 0,0 -1,1 0,1 0,0 -1,0 -2,2 -2,0 0,0 0,0 0,0 -2,-1 -1,-2 -1,0 0,-1 -1,0 -3,-1 -1,-1 -1,0 0,-1 -1,0 0,0 -3,0 0,0 1,-1 0,-1 0,-1 0,-1 0,-1 1,0 1,-2 1,-4 0,-4 z" fill="rgba(92,61,26,.06)" stroke="#5C3D1A" stroke-width="0.7" stroke-linejoin="round"/>
<path d="m 345,126 1,-1 1,-1 1,-2 0,-2 1,-1 -1,-2 -1,-1 -1,0 -1,2 -1,1 -2,0 -1,1 -2,0 -1,1 -1,0 1,-5 0,-1 0,-2 1,-2 0,-1 0,-1 2,2 1,0 1,0 2,2 1,1 1,0 1,0 2,-2 -1,7 0,5 1,6 1,5 1,1 1,0 0,1 2,2 0,0 0,1 -1,1 0,1 -1,1 -1,-1 -1,0 -2,1 -1,-1 -2,1 -2,0 -1,0 0,1 0,0 -1,1 -1,0 0,-1 0,0 0,-1 0,-1 0,0 0,-2 -2,0 0,-2 -1,0 0,1 -1,0 -1,1 -1,0 -1,1 -1,-1 -1,1 -1,-1 -1,0 0,-1 -1,0 0,1 -1,0 -1,0 -1,0 -1,0 0,0 -1,0 -1,0 0,1 -1,0 -1,0 0,0 0,-2 0,-1 0,-1 -1,0 0,-1 2,-1 1,-2 1,0 1,0 1,1 1,-1 1,0 0,-1 1,-4 0,-4 -1,-1 -1,0 0,0 1,0 0,0 0,-3 1,1 1,1 1,0 1,0 1,-1 1,0 1,1 0,2 0,3 1,3 1,1 1,0 1,-1 0,-1 0,-1 0,-1 1,1 1,1 0,1 1,0 1,0 1,1 1,0 z" fill="rgba(92,61,26,.06)" stroke="#5C3D1A" stroke-width="0.7" stroke-linejoin="round"/>
<path d="m 319,263 0,0 1,0 0,0 0,-1 0,-1 1,0 0,-1 0,0 0,0 2,-2 1,0 0,0 -1,-1 -1,-1 -1,-1 -1,0 0,-1 0,0 -1,-2 0,0 0,0 0,-1 -2,-3 0,-1 -1,-1 0,0 0,0 0,1 2,2 1,0 0,1 1,1 2,1 1,1 1,0 1,0 1,0 1,0 1,-1 2,-1 1,1 1,0 1,1 1,0 1,2 2,2 0,0 0,1 -1,-1 -2,0 -1,0 -1,0 -3,2 -1,2 -1,2 0,2 0,1 -1,3 -1,0 0,1 0,0 -2,1 0,0 -1,0 -1,1 -2,1 -1,1 0,1 0,1 -1,0 -1,0 0,-1 -1,-1 0,0 1,0 1,-1 -1,-2 0,0 0,0 0,-1 0,-1 0,-1 1,-1 0,-1 0,-1 0,0 -1,0 1,-1 z" fill="rgba(92,61,26,.06)" stroke="#5C3D1A" stroke-width="0.7" stroke-linejoin="round"/>
<path d="m 174,313 0,0 0,0 0,0 0,0 0,0 0,0 0,0 0,0 0,0 0,0 0,0 0,0 0,0 0,0 0,0 0,0 0,0 0,0 0,0 0,0 0,0 0,0 0,0 0,0 0,0 0,0 0,0 0,0 0,0 0,0 0,0 -1,0 0,0 0,0 0,0 -1,1 -1,0 0,0 -1,0 -1,1 0,0 0,0 -1,0 0,0 0,0 0,0 -1,0 -1,1 -1,0 0,0 2,-2 1,0 1,0 1,0 0,0 0,0 0,0 0,0 0,0 1,-1 1,-1 1,0 0,0 1,-1 1,0 2,-1 1,-1 0,0 0,-1 0,0 0,-1 0,-1 0,-1 0,-1 0,0 0,0 0,-1 0,-1 2,-2 1,0 0,0 0,0 0,-1 0,-1 1,1 1,1 1,1 0,1 0,0 0,0 1,0 1,0 0,0 0,0 1,0 0,0 0,0 0,0 1,0 1,0 0,0 1,0 0,0 1,0 0,0 0,0 0,0 0,0 0,0 0,0 1,0 1,0 0,0 0,1 0,0 0,1 0,1 0,0 0,0 0,0 -1,0 0,0 -1,0 0,0 -1,1 0,0 0,0 -2,0 -1,0 -1,0 0,0 0,1 0,0 -1,0 0,0 0,0 0,1 0,1 0,0 0,0 0,1 0,0 -1,0 0,1 0,1 0,0 0,0 0,1 0,0 -1,1 0,0 -1,0 0,0 -1,0 -1,0 0,0 0,0 0,0 0,1 0,0 0,0 0,1 0,0 0,0 0,1 0,0 -1,0 -1,0 0,1 0,1 0,0 0,0 0,0 -1,1 0,0 -1,-1 0,0 0,0 0,0 0,1 0,0 0,1 0,0 0,0 0,1 0,0 0,1 0,1 0,0 0,0 0,0 0,0 -1,0 0,0 0,0 0,0 0,0 0,0 0,0 0,0 0,0 0,0 0,0 0,0 0,0 0,0 0,0 0,0 0,0 0,0 -1,0 0,0 0,0 0,0 0,0 0,0 0,0 0,0 0,0 0,-1 0,0 0,0 0,0 0,0 0,0 0,0 0,0 0,0 0,0 0,0 0,0 0,0 0,0 0,0 0,0 1,0 0,0 0,0 0,0 0,-1 0,0 0,0 0,0 0,0 0,0 0,0 0,0 0,0 0,0 0,0 -1,-1 1,0 1,0 0,0 0,0 0,0 0,0 0,0 1,0 0,0 0,0 0,0 0,0 0,0 0,0 0,0 -1,0 0,0 z" fill="rgba(92,61,26,.06)" stroke="#5C3D1A" stroke-width="0.7" stroke-linejoin="round"/>
<path d="m 238,258 1,1 0,0 0,0 0,0 -1,-1 0,0 1,0 0,-1 -1,0 0,-1 1,0 0,1 1,0 0,0 1,0 0,0 0,0 0,-1 0,-1 1,-1 0,1 0,1 0,1 1,0 0,-2 0,-1 -1,-1 -2,-2 0,-1 -1,-1 1,-1 0,-1 2,-3 0,-1 1,0 2,-1 0,0 2,2 0,1 0,0 1,0 1,1 0,0 2,0 2,1 0,1 2,0 0,0 0,0 0,0 0,1 0,0 0,1 1,0 0,0 1,1 0,1 -1,0 0,1 -1,0 -1,0 0,-1 0,0 -1,0 0,0 -1,0 -1,1 0,-1 -1,0 -1,0 -1,0 0,1 -1,2 0,0 -2,-1 -1,0 0,1 1,2 0,1 -1,0 0,1 -1,0 0,1 0,0 -1,-1 -1,3 -1,0 0,0 -1,0 0,0 0,0 0,1 0,0 -1,0 -2,-1 -2,0 0,-1 -1,-1 0,-1 -1,0 0,-1 0,0 1,0 0,1 0,0 3,0 2,0 0,-1 -1,0 0,0 -1,0 1,-1 0,0 z" fill="rgba(92,61,26,.06)" stroke="#5C3D1A" stroke-width="0.7" stroke-linejoin="round"/>
<path d="m 133,303 1,-1 0,-1 0,0 0,0 0,-1 1,0 0,-1 1,-1 0,0 1,0 0,0 1,0 1,0 1,-1 1,0 0,0 2,0 0,1 1,0 0,-1 1,-1 0,0 -1,1 0,1 -1,1 0,0 1,0 1,3 1,2 1,0 1,1 0,0 0,0 0,1 0,1 0,0 -2,0 -1,0 -1,0 -2,1 0,2 0,0 0,1 0,0 0,1 0,1 -1,0 0,0 0,0 0,1 1,1 0,1 0,0 0,0 -2,-1 -1,-1 -1,0 0,0 -1,1 -2,0 -2,1 0,1 -2,0 0,0 0,-1 0,-1 -1,-1 0,0 0,0 0,0 0,-1 1,-1 2,-1 1,-1 1,0 0,-2 0,0 -1,0 -1,1 -1,-1 -1,0 -2,-1 0,0 -1,0 -1,0 -3,0 0,0 0,-1 2,0 1,-1 0,-1 0,0 0,0 0,0 0,0 0,0 1,0 0,0 0,0 1,0 0,-1 1,0 0,0 0,0 1,0 0,1 0,0 0,0 1,0 1,0 0,-1 1,0 0,-1 -1,0 z" fill="rgba(92,61,26,.06)" stroke="#5C3D1A" stroke-width="0.7" stroke-linejoin="round"/>
<path d="m 341,224 -1,1 -2,1 0,1 0,0 0,0 -3,-1 -1,-1 0,0 0,1 -1,0 -1,1 0,-1 -1,0 0,-1 -1,0 -1,-1 -1,0 0,0 0,0 0,-2 -1,0 0,-1 -1,-1 -2,-1 -2,0 -1,1 0,1 -3,1 0,0 -1,0 0,0 -1,0 -1,1 -1,0 -1,1 -1,0 0,0 -2,-1 -1,0 0,0 0,0 0,0 0,-1 0,-1 0,-1 0,-1 0,-1 -1,0 -1,-1 1,-1 0,-1 0,-1 -1,-1 1,-1 2,0 1,0 1,0 0,-1 0,0 0,0 0,0 0,0 1,0 0,0 0,-1 0,-1 0,-1 0,-1 2,-1 0,0 1,-1 2,-2 0,0 1,0 1,1 1,-1 1,0 1,0 0,0 1,2 1,0 1,1 1,-1 1,0 1,-2 -1,0 0,-2 0,-2 0,0 1,1 1,-1 1,1 0,1 3,0 1,0 1,0 0,1 0,1 1,0 1,0 0,0 0,0 2,0 0,0 0,-2 1,0 1,0 0,0 0,1 1,0 0,1 0,1 1,6 0,3 -1,9 z m -3,3 0,0 0,0 0,0 z" fill="rgba(92,61,26,.06)" stroke="#5C3D1A" stroke-width="0.7" stroke-linejoin="round"/>
<path d="m 252,267 -1,-1 0,0 0,-1 0,-1 0,-1 1,0 -1,-1 0,-1 -1,-1 0,-1 -1,-1 0,0 -1,0 0,-2 -1,0 0,-1 0,0 1,-2 0,-1 1,0 1,0 1,0 0,1 1,-1 1,0 0,0 1,0 0,0 0,1 1,0 1,0 0,-1 1,0 0,-1 -1,-1 0,0 -1,0 0,-1 0,0 0,-1 0,0 0,0 0,0 0,-1 0,-1 1,0 1,-2 0,0 -1,0 0,-1 0,0 1,0 0,-1 1,-1 0,1 0,0 1,1 0,1 0,1 0,0 1,-1 0,-1 2,-2 1,0 0,0 1,-1 1,0 0,1 0,0 1,-1 0,1 1,0 1,0 1,1 1,0 0,0 0,1 1,1 0,1 0,1 -1,2 0,1 0,1 -1,1 0,1 0,0 1,0 0,2 -1,1 0,1 0,0 -1,1 0,0 0,0 -1,0 0,1 -1,0 0,1 0,0 1,0 0,1 1,0 1,2 1,1 0,1 0,0 0,1 0,1 1,0 1,1 0,1 -1,1 1,1 -1,0 0,1 -1,1 0,1 0,0 -1,0 -2,1 -1,0 0,0 -1,0 0,0 -1,0 -1,0 -1,1 -1,0 -1,-1 -1,0 0,0 0,0 0,0 0,0 0,0 0,-1 -1,-1 0,-1 -1,1 -2,0 -1,0 -2,3 0,2 0,0 -1,0 -2,-2 z" fill="rgba(92,61,26,.06)" stroke="#5C3D1A" stroke-width="0.7" stroke-linejoin="round"/>
<path d="m 316,243 0,1 0,0 -1,0 -3,0 -2,-1 -1,0 -1,0 -1,0 -2,-1 -1,0 -1,2 0,1 0,1 -2,0 0,1 -2,0 -1,1 -1,0 -1,1 0,0 0,0 0,-1 -1,0 0,-2 0,0 0,-1 -1,0 0,-1 0,0 0,0 0,0 0,-1 0,0 0,-1 1,-1 0,-1 0,-1 -1,0 -1,0 0,0 -1,0 0,0 0,0 -1,-1 0,-1 1,-2 0,-1 1,-1 1,0 0,-1 2,0 2,-1 0,0 0,0 0,-1 1,0 1,-1 0,-1 1,0 1,-1 0,0 0,-1 1,0 0,0 0,-2 2,0 1,-1 0,-1 2,2 0,1 1,0 0,0 0,0 0,0 1,0 2,1 0,0 -1,2 1,0 -1,1 0,1 -1,1 0,1 1,1 1,0 0,1 -1,1 0,1 0,1 -1,2 0,1 1,1 0,1 1,1 1,0 1,0 1,0 0,0 0,0 z" fill="rgba(92,61,26,.06)" stroke="#5C3D1A" stroke-width="0.7" stroke-linejoin="round"/>
<path d="m 177,291 -1,-1 -1,2 0,1 1,0 0,0 0,0 -1,1 0,0 -2,0 0,-1 1,-1 0,0 0,-1 1,0 0,-1 -1,-2 0,-1 -1,-1 -2,1 0,0 -2,2 0,1 0,0 0,0 0,0 -1,0 0,-1 0,-1 -1,-1 0,-1 0,-1 0,-1 0,0 0,-1 0,-1 1,0 1,-1 0,-2 1,-1 -1,0 0,0 1,-1 0,-1 1,0 0,0 0,0 1,0 1,0 1,0 0,0 0,0 0,0 2,0 1,-1 2,0 0,-1 -1,0 0,0 1,-1 1,0 2,-3 0,0 1,1 1,-1 1,1 1,0 1,0 0,0 0,0 2,0 0,0 0,0 1,1 0,1 0,2 2,2 0,1 0,2 0,1 1,2 0,2 0,0 0,1 -1,0 0,1 0,0 -2,-1 0,0 1,0 0,-1 -1,0 0,0 -1,0 -2,1 -1,0 0,1 -1,0 -1,0 -1,0 0,1 -1,0 0,-1 -1,0 0,1 0,0 0,1 -1,0 -1,1 z" fill="rgba(92,61,26,.06)" stroke="#5C3D1A" stroke-width="0.7" stroke-linejoin="round"/>
<path d="m 330,72 3,-2 0,-1 -2,-3 -1,-1 -1,-1 1,-3 0,0 2,0 1,0 0,-1 1,0 3,3 2,1 1,1 2,0 0,0 1,0 1,0 0,1 3,1 2,-1 2,-2 1,-2 0,-2 -1,-3 1,-2 -1,-1 0,-2 1,-2 1,-1 1,0 2,-1 1,-2 0,-2 0,-8 0,0 2,-3 0,-3 0,-1 0,-2 0,-3 -1,-4 -3,-7 0,-1 0,-1 1,-1 1,-2 0,-1 0,-1 1,1 0,1 0,0 2,0 1,-1 1,-2 1,0 0,0 1,1 1,0 1,1 2,2 2,3 5,6 4,7 3,3 2,3 6,4 2,1 0,1 1,1 4,2 3,1 6,2 3,1 0,0 0,1 0,1 1,2 1,0 3,1 3,0 3,0 2,-2 2,-2 2,-2 2,-1 1,-1 1,-1 1,-1 0,0 0,2 -1,2 -1,1 -1,2 -2,2 -1,2 0,1 -1,2 0,1 1,3 1,2 2,5 1,2 -1,-1 0,-1 -1,0 0,0 0,1 1,-1 0,0 0,1 0,0 0,0 3,1 2,-2 0,-1 1,-1 0,0 3,0 0,0 -1,1 -2,0 -2,1 -1,3 -1,0 -1,0 -3,1 -2,1 -1,0 -1,1 0,1 -2,2 -1,0 -2,0 -1,-1 0,-1 0,0 -1,0 -1,0 -1,2 0,0 1,1 -2,0 -1,0 -4,0 -1,0 -2,-1 -3,1 -2,1 -3,3 -5,5 -4,6 -2,3 0,2 1,1 -1,4 -1,2 0,2 -4,-4 -5,-2 -8,-4 -2,-2 -2,-2 -3,-1 -2,-2 -2,-1 -2,-1 -2,0 -3,1 -2,1 -3,2 -2,1 -2,2 0,1 -1,0 0,-1 0,0 1,1 0,-1 -1,0 -1,-2 -1,0 -1,-1 0,-1 -1,-1 -1,0 -1,1 -1,-1 -1,0 -2,2 -1,3 -1,3 0,2 2,1 3,2 1,0 1,-1 2,0 1,2 2,1 1,2 3,1 1,1 1,1 -1,1 -1,0 -1,1 -2,1 -1,-1 -3,-1 -1,0 0,1 0,0 0,-1 1,0 0,-1 -1,0 -1,0 0,0 0,2 -1,1 -1,0 0,0 0,4 0,0 -1,0 -2,1 -1,2 0,0 -1,-1 -1,0 -1,-1 -1,-3 0,-1 0,-2 1,-3 0,-1 1,0 0,-1 0,-3 0,-2 -2,-3 -1,0 -1,0 -1,-1 -1,-1 -1,0 0,-1 0,-1 0,-1 1,-1 0,-1 0,-3 0,-2 1,-1 1,-1 2,0 1,-1 1,-1 1,-2 1,1 1,1 1,0 0,-1 1,-1 1,-2 z m 15,-61 0,-1 1,-1 2,1 1,2 -2,1 -1,-1 -1,-1 z m -32,81 0,2 0,1 -1,0 0,0 -1,-1 0,-2 0,-1 1,-1 2,0 0,-1 0,1 -1,1 z m 30,-87 0,3 0,0 -1,-3 0,-1 -1,0 0,-1 1,1 1,0 0,-1 0,0 0,1 0,1 z" fill="rgba(92,61,26,.06)" stroke="#5C3D1A" stroke-width="0.7" stroke-linejoin="round"/>
<path d="m 213,278 -1,1 -1,0 0,0 -1,-1 -1,-1 0,0 1,-1 -1,-1 0,0 0,-1 0,-1 1,-1 0,-1 1,0 0,-1 0,0 1,0 0,-1 -1,-1 0,-1 0,0 1,0 2,-1 0,-1 0,0 -1,-1 0,-1 -1,0 0,-2 0,-1 0,-1 -1,-1 0,0 2,-1 1,-1 1,0 0,0 1,-1 1,0 1,0 0,0 1,0 0,0 0,2 1,1 0,1 1,0 1,-1 0,1 0,3 -1,1 -1,-1 0,1 0,1 1,1 1,1 1,0 1,0 0,1 1,1 0,1 1,0 0,0 1,0 0,0 0,1 1,0 1,0 0,1 0,0 0,1 0,0 0,0 0,0 0,0 0,1 0,0 1,1 1,0 -1,1 0,0 0,2 1,1 0,1 -1,1 0,0 0,0 0,0 0,-1 -1,0 0,-1 -1,0 -2,1 0,1 -3,1 -4,-2 -2,-2 -6,0 z m 9,11 0,1 -2,1 -1,1 -1,0 0,0 -1,0 0,0 0,0 -1,-1 1,-1 0,0 0,0 1,-3 0,0 0,0 1,-2 1,0 1,-1 1,0 0,1 -1,1 0,1 -2,2 0,2 1,1 z" fill="rgba(92,61,26,.06)" stroke="#5C3D1A" stroke-width="0.7" stroke-linejoin="round"/>
<path d="m 334,240 0,2 1,3 3,6 2,2 1,0 0,0 0,0 -2,-2 -1,-2 -1,0 -1,-1 -1,0 -1,-1 -2,1 -1,1 -1,0 -1,0 -1,0 -1,0 -1,-1 -2,-1 -1,-1 0,-1 -1,0 -2,-2 0,-1 0,0 0,0 0,0 0,0 -1,-2 0,-1 0,0 1,0 2,-1 1,-2 1,0 0,-1 1,0 0,0 2,0 0,0 0,-1 1,0 0,0 0,0 0,0 1,0 0,-1 1,-2 0,-2 -1,-2 0,0 1,0 0,0 -1,-1 0,-1 0,-1 0,-2 0,0 1,0 1,1 1,0 0,1 1,0 0,1 1,-1 1,0 0,-1 0,0 1,1 3,1 0,0 0,0 0,0 0,0 0,0 0,1 -1,0 0,1 -1,4 -1,1 -1,2 0,3 -1,1 z" fill="rgba(92,61,26,.06)" stroke="#5C3D1A" stroke-width="0.7" stroke-linejoin="round"/>
<path d="m 258,221 0,-1 0,0 0,0 0,0 1,-2 0,0 0,-2 0,0 1,-1 1,-1 1,0 3,-1 0,-1 1,0 1,0 1,-1 1,0 0,1 0,0 0,1 -1,0 -1,0 -1,0 0,1 1,1 -1,1 -2,0 -1,0 -1,1 -1,1 -1,-1 0,0 0,-1 0,0 -1,2 1,0 0,1 -1,0 0,0 0,0 1,0 1,-1 1,1 1,-1 0,-1 1,0 0,3 0,0 -1,0 -1,0 -1,1 -1,3 -1,1 0,1 0,0 -1,1 0,1 0,1 -1,3 0,2 0,0 0,1 0,0 0,1 1,0 0,0 -1,2 -1,0 0,1 0,1 0,0 -2,0 0,-1 -2,-1 -2,0 0,0 -1,-1 -1,0 0,0 0,-1 -2,-2 0,0 1,-1 1,0 1,-1 4,-6 1,-2 1,-4 0,-2 -1,-1 0,-1 z" fill="rgba(92,61,26,.06)" stroke="#5C3D1A" stroke-width="0.7" stroke-linejoin="round"/>
<path d="m 360,166 0,0 0,0 -1,0 1,1 0,0 0,1 -1,0 -1,0 0,0 0,0 1,0 0,0 -1,1 -1,0 0,0 2,1 -1,0 -1,-1 0,1 1,0 -1,0 1,1 0,0 -1,0 0,0 0,0 0,-1 0,0 0,1 0,0 1,1 0,0 0,1 0,0 -1,-1 0,-1 0,0 -1,0 0,1 0,0 -1,0 -1,0 0,1 0,2 -1,1 0,1 0,2 -2,-1 -1,1 0,1 -1,0 -2,-1 0,-1 1,-1 0,0 -1,0 -2,0 -1,-1 -1,0 -1,-1 -1,0 0,0 0,-1 1,-1 0,0 -1,0 0,-1 0,0 0,-1 1,0 -1,0 0,-1 -1,-1 -1,-1 0,-1 -1,-1 0,0 0,-1 0,0 0,-1 1,-1 0,-1 0,-1 0,0 1,-1 0,0 1,-1 0,-1 -1,-1 0,0 1,-1 -1,-1 0,-1 1,0 0,0 1,0 -1,-2 0,-3 1,0 0,-2 0,0 1,-1 1,0 0,-1 0,0 0,1 1,0 1,-1 0,0 0,-1 1,0 2,0 2,-1 1,1 2,-1 1,0 1,1 1,-1 0,-1 1,-1 0,-1 0,0 1,2 2,3 -1,1 1,1 0,1 0,0 0,0 0,1 0,1 0,0 1,0 0,1 1,0 0,1 0,2 1,1 0,3 0,2 0,0 -1,3 0,0 1,-2 0,2 1,0 0,1 0,0 -1,0 -1,1 -1,0 0,1 1,-1 0,0 0,0 0,1 -1,0 -1,1 -1,1 0,0 1,0 0,1 -2,0 0,0 z" fill="rgba(92,61,26,.06)" stroke="#5C3D1A" stroke-width="0.7" stroke-linejoin="round"/>
<path d="m 200,289 2,-1 0,-1 2,1 2,0 1,-1 1,0 0,1 0,0 0,0 0,0 0,0 1,0 0,0 0,0 0,0 1,0 1,1 0,0 1,1 0,0 0,1 0,0 -1,-1 0,0 -2,0 -2,0 -1,1 0,0 0,0 -1,0 -1,1 0,0 -1,-1 -1,0 -1,0 0,0 -1,0 -1,1 0,1 -1,0 0,0 -2,-1 1,0 0,-3 -2,-1 0,0 0,0 2,1 1,0 1,-1 z" fill="rgba(92,61,26,.06)" stroke="#5C3D1A" stroke-width="0.7" stroke-linejoin="round"/>
<path d="m 130,356 1,-2 0,-2 0,-1 -3,-3 1,-3 0,-1 -1,-1 1,-1 -1,-1 0,-1 1,0 1,0 1,0 1,0 0,-1 0,0 1,0 0,1 1,0 1,-1 1,0 1,0 1,-1 0,1 1,0 0,0 1,1 0,0 0,1 1,0 1,1 0,1 1,0 1,1 0,1 0,0 0,1 1,0 0,0 1,0 0,1 1,0 0,2 1,1 0,-1 1,1 1,0 0,0 0,1 0,1 0,1 -1,1 0,1 0,0 -1,0 -1,1 -1,1 0,1 2,1 0,0 -1,1 0,0 1,0 0,0 -1,1 -1,0 0,1 -1,1 -2,1 -1,0 -3,2 0,-1 -1,0 2,-1 0,-1 0,-1 1,-1 0,-2 -1,-2 0,-1 -1,0 0,-2 -1,0 -1,-1 1,-1 1,0 1,1 0,1 1,0 1,-2 0,-1 -3,-1 -1,1 0,1 -1,1 0,1 -1,1 0,0 0,1 0,1 1,2 1,1 1,0 -1,2 -1,1 -1,0 -1,0 0,0 0,-1 -1,-1 -2,0 -1,0 -2,0 0,-1 -1,0 1,-1 -2,-1 1,-1 0,0 1,1 1,-1 z m 5,22 1,1 0,0 1,0 1,1 0,2 -1,1 -1,0 -2,0 0,-1 0,0 0,-1 0,-1 0,-1 0,0 1,0 1,-1 0,0 1,0 0,0 0,0 z m 9,-3 0,-2 1,-1 0,0 0,-1 1,-1 1,1 0,1 0,2 -1,1 0,1 0,1 0,0 -1,0 -1,2 0,0 0,0 0,1 0,0 0,0 0,0 0,0 -1,0 -1,1 0,-1 0,-1 0,-1 0,0 1,-3 z m -24,-24 -1,0 0,0 0,-1 0,0 0,-1 1,0 0,-1 0,0 0,0 -1,1 -1,0 0,0 0,0 0,0 0,0 z m 2,-4 0,-1 0,0 1,0 0,0 1,0 0,0 0,1 -1,0 -1,0 0,0 0,0 0,0 z m 8,31 1,0 0,0 0,0 -1,0 0,0 0,0 0,0 -1,-1 2,0 z" fill="rgba(92,61,26,.06)" stroke="#5C3D1A" stroke-width="0.7" stroke-linejoin="round"/>
<path d="m 301,262 0,-1 2,-1 0,-1 1,0 0,-1 0,-1 0,-3 0,0 1,0 0,1 1,0 1,1 1,0 2,1 1,2 0,0 0,-2 -1,-1 0,0 0,0 1,-1 3,1 0,1 0,0 0,0 0,0 1,0 0,0 0,0 0,0 0,0 0,0 0,0 0,0 0,1 -1,1 -1,0 0,0 0,0 0,0 0,0 0,1 0,0 0,0 0,0 0,0 0,1 0,1 1,1 1,0 0,1 -1,0 -1,1 0,1 0,0 0,0 -1,0 0,-1 0,-1 -1,-1 0,-1 -3,-1 -2,0 -2,1 -1,1 0,2 -1,0 0,0 -2,0 0,-1 -1,-1 0,-2 1,-1 0,-1 0,-2 0,0 -2,0 z" fill="rgba(92,61,26,.06)" stroke="#5C3D1A" stroke-width="0.7" stroke-linejoin="round"/>
<path d="m 187,318 0,1 -1,0 -1,0 0,2 0,2 -1,0 0,1 1,1 0,1 0,0 -2,-2 -1,0 0,0 -1,1 -1,0 0,0 -1,-1 -2,1 0,-1 1,-1 0,0 1,-1 0,0 -1,0 0,0 0,0 0,-1 -1,-1 0,-1 -1,-1 0,-1 0,0 1,1 0,0 1,-1 1,0 0,-2 1,0 1,-1 0,-1 -1,-1 -1,-2 1,0 2,0 1,0 1,-1 0,-1 1,-2 1,0 0,-1 1,-1 1,-1 1,0 1,0 1,-1 4,0 1,-1 1,0 0,0 1,0 0,0 0,1 1,1 2,0 1,1 1,0 1,0 0,-1 0,0 0,0 1,0 1,1 0,2 2,0 0,1 0,1 0,0 1,1 2,0 0,0 -2,4 -1,4 -1,-1 -1,0 0,-1 -1,-1 0,-1 -1,-1 -1,-1 -3,-1 0,-1 -3,0 0,0 -2,1 0,1 -2,0 -1,1 0,-1 -1,0 0,1 0,0 0,0 0,1 0,0 0,1 0,0 0,1 -1,1 0,1 0,0 0,0 0,0 -2,2 z" fill="rgba(92,61,26,.06)" stroke="#5C3D1A" stroke-width="0.7" stroke-linejoin="round"/>
<path d="m 140,340 -1,-1 0,0 -1,0 0,-1 -1,1 -1,0 -1,0 -1,1 -1,0 0,-1 -1,0 0,0 0,-1 1,-1 1,-3 2,-2 0,-1 0,0 0,0 1,0 0,0 -1,-1 2,-2 0,0 -1,0 -3,0 0,0 3,-2 0,-2 0,0 -1,-1 -1,0 0,-1 -1,-1 0,-2 -1,0 0,0 2,0 0,-1 2,-1 2,0 1,-1 0,0 1,0 1,1 2,1 0,0 0,0 1,0 1,1 1,0 0,1 0,0 0,-1 0,-1 -1,-1 0,-1 1,-1 1,0 1,1 0,1 1,1 1,2 0,2 1,1 0,0 -1,0 -1,1 0,1 -1,1 0,1 -1,0 0,1 0,1 0,0 -1,0 0,1 0,0 0,1 0,1 0,1 0,0 0,1 1,1 -1,1 -1,0 0,1 1,1 0,1 -1,0 -1,0 -1,1 0,0 -1,0 -1,1 -3,0 z m -6,-10 0,0 0,1 -1,1 0,0 -1,1 -1,0 -1,-1 -1,0 0,0 -1,0 0,0 0,0 0,0 0,1 -2,1 0,1 -1,1 0,1 0,0 -1,-1 0,-1 -1,0 1,-1 0,-1 0,-1 1,-2 0,-1 1,-1 1,0 0,0 0,1 0,1 2,-1 1,-1 1,0 1,0 1,0 z m -5,7 0,-1 1,-1 0,1 1,2 0,0 0,1 -1,-1 0,-1 0,0 0,-1 1,0 z m 6,-8 -1,0 0,0 0,-1 1,-1 0,1 0,0 0,0 z" fill="rgba(92,61,26,.06)" stroke="#5C3D1A" stroke-width="0.7" stroke-linejoin="round"/>
<path d="m 231,271 0,-1 0,0 0,-1 -1,0 -1,0 0,-1 0,0 -1,0 0,0 -1,0 0,-1 -1,-1 0,-1 -1,0 -1,0 -1,-1 -1,-1 0,-1 0,-1 1,1 1,-1 0,-3 0,-1 -1,1 -1,0 0,-1 -1,-1 0,-2 0,0 0,0 1,0 1,0 0,-1 1,0 2,-1 2,-1 1,1 1,1 -1,1 0,1 -1,1 0,1 0,0 1,-1 1,0 0,0 -1,1 1,1 0,0 0,1 0,0 1,0 0,-1 -1,-1 1,-1 1,0 0,-1 0,0 0,1 0,0 0,0 0,1 1,0 0,1 1,1 0,1 2,0 2,1 1,0 0,0 1,2 0,0 0,1 0,2 0,2 0,0 0,1 1,2 0,1 1,0 1,0 0,1 0,0 0,0 0,0 1,1 0,0 0,0 0,0 0,1 0,0 0,1 -1,0 0,-1 -1,0 0,0 -1,1 -1,0 -2,-1 -1,-1 0,0 0,-1 -1,-1 0,-1 -1,-1 0,-1 -1,0 0,1 0,0 -1,0 -1,-1 0,0 0,-1 -2,-1 z" fill="rgba(92,61,26,.06)" stroke="#5C3D1A" stroke-width="0.7" stroke-linejoin="round"/>
<path d="m 257,289 0,0 1,-1 -1,0 -1,1 -1,1 0,0 0,-1 0,0 0,1 0,-1 -1,0 0,1 0,0 -3,1 0,0 -1,1 -1,1 0,1 0,0 0,1 -1,0 0,-1 0,0 0,0 -1,0 0,0 1,0 0,1 1,0 0,1 -1,0 -1,1 -1,0 0,1 -1,0 -1,2 -1,2 0,0 -1,0 -2,-2 0,-2 0,0 1,-2 1,0 1,-1 2,0 0,-1 0,0 0,-2 0,-1 1,-1 -1,-1 1,0 -1,-2 0,-1 2,0 0,-1 0,-1 -1,0 0,-1 -1,0 -1,-1 0,0 0,-1 0,-1 0,-1 -1,-2 0,0 0,-1 0,0 1,-1 0,-1 1,-1 0,0 -1,0 0,0 0,0 0,0 1,0 1,1 2,-1 0,-1 1,-1 0,-1 1,-2 -1,-1 0,-1 0,0 0,0 0,0 2,-1 2,2 1,0 0,0 0,1 1,2 0,0 -1,0 -1,1 0,1 0,1 -2,3 -1,2 0,1 1,0 0,1 2,1 0,1 1,0 1,1 1,0 0,1 1,0 0,0 0,0 1,0 0,0 0,1 -1,1 0,0 1,0 -1,1 0,0 0,1 -1,0 -1,0 1,0 1,0 0,-1 0,0 0,0 -1,0 -1,0 z" fill="rgba(92,61,26,.06)" stroke="#5C3D1A" stroke-width="0.7" stroke-linejoin="round"/>
<path d="m 343,190 0,1 0,0 0,0 0,1 -1,1 -2,4 0,4 0,2 0,0 -1,0 -1,0 0,2 0,0 -2,0 0,0 0,0 -1,0 -1,0 0,-1 0,-1 -1,0 -1,0 -3,0 0,-1 -1,-1 -1,1 -1,-1 0,0 0,-2 2,0 1,-1 0,-1 1,-2 0,-1 0,-1 1,-1 0,-1 1,-1 1,-2 0,-1 -1,0 0,-1 0,-1 0,-1 -1,-1 0,0 1,0 0,0 0,-1 0,-1 1,-1 -1,0 0,-1 -1,-1 0,0 0,0 0,0 2,0 2,-2 1,0 0,0 1,0 1,1 1,0 1,1 2,0 1,0 0,0 -1,1 0,1 2,1 1,0 0,-1 1,-1 2,1 0,-2 0,-1 1,-1 0,-2 0,-1 1,0 1,0 0,0 1,3 0,0 -1,-1 -1,0 0,2 -1,1 0,1 1,1 0,1 -1,-1 -1,1 -1,0 0,1 2,0 0,1 -1,1 0,0 0,0 0,0 0,1 0,0 1,0 0,1 0,-1 0,0 0,2 -1,0 0,0 0,1 1,0 0,0 -1,0 1,2 0,1 -1,-1 0,-1 -1,0 0,0 1,0 -1,-1 -1,0 0,-1 0,0 -1,0 -2,0 -1,1 0,1 -1,0 0,-1 -1,0 -1,0 0,0 z" fill="rgba(92,61,26,.06)" stroke="#5C3D1A" stroke-width="0.7" stroke-linejoin="round"/>
<path d="m 155,341 -1,3 0,1 1,1 -1,2 0,2 -1,0 -1,2 0,1 -1,0 0,1 -1,1 0,1 -1,0 -1,0 -1,0 -1,-2 -1,0 0,0 0,-1 1,-1 0,-1 0,-1 0,-1 0,0 -1,0 -1,-1 0,1 -1,-1 0,-2 -1,0 0,-1 -1,0 0,0 -1,0 0,-1 0,0 0,-1 -1,-1 -1,0 0,-1 -1,-1 -1,0 0,-1 0,0 3,0 1,-1 1,0 0,0 1,-1 1,0 1,0 0,-1 -1,-1 0,-1 1,0 1,-1 -1,-1 0,-1 0,0 0,-1 0,-1 0,-1 0,0 0,-1 1,0 0,0 0,-1 0,-1 1,0 0,-1 1,-1 0,-1 1,-1 1,0 0,0 0,1 0,0 2,-1 1,1 0,0 0,0 1,0 1,0 2,0 0,-1 0,-1 1,0 2,1 0,2 1,0 0,0 0,1 -2,1 -1,2 -1,1 0,1 0,1 1,1 -1,1 -1,0 0,1 1,0 -1,0 -1,3 -2,6 z" fill="rgba(92,61,26,.06)" stroke="#5C3D1A" stroke-width="0.7" stroke-linejoin="round"/>
<path d="m 274,265 0,-1 1,-1 0,-1 1,0 -1,-1 1,-1 0,-1 -1,-1 -1,0 0,-1 0,-1 0,0 0,-1 -1,-1 -1,-2 -1,0 0,-1 -1,0 0,0 0,-1 1,0 0,-1 1,0 0,0 0,0 1,-1 0,0 0,-1 1,-1 0,-2 -1,0 0,0 0,-1 1,-1 0,-1 0,-1 1,-2 0,-1 0,-1 -1,-1 0,-1 0,0 1,-1 0,-1 0,-1 0,-1 1,0 0,0 0,0 0,-1 1,-1 0,-4 0,0 1,-1 1,-1 0,-1 1,0 2,0 0,1 -1,1 1,1 1,-1 1,0 1,-1 1,0 0,1 0,0 0,-2 1,-1 1,-2 3,-1 1,0 0,1 0,2 1,1 1,0 0,1 0,0 -1,1 0,0 0,0 0,0 -2,1 -2,0 0,1 -1,0 -1,1 0,1 -1,2 0,1 1,1 0,0 0,0 1,0 0,0 1,0 1,0 0,1 0,1 -1,1 0,1 0,0 0,1 0,0 0,0 0,0 0,1 1,0 0,1 0,0 0,2 1,0 0,1 0,0 0,0 0,0 1,1 0,1 0,0 0,0 -1,1 -1,0 -1,-1 -2,0 0,0 0,0 0,-1 0,-1 -1,-1 -2,3 -1,-1 0,0 -1,2 1,1 -1,1 1,2 0,0 -1,2 0,0 -1,1 0,0 0,1 0,1 -1,0 0,1 1,1 0,1 -2,1 -1,1 -1,1 0,0 -1,0 0,1 -1,0 0,0 -1,0 0,0 -2,0 -1,1 -1,0 0,-1 -1,-1 z" fill="rgba(92,61,26,.06)" stroke="#5C3D1A" stroke-width="0.7" stroke-linejoin="round"/>
<path d="m 130,322 1,0 0,0 1,2 0,1 -1,1 0,0 0,0 -2,1 -1,1 -1,0 0,-1 -1,0 0,-1 1,-1 0,-1 0,0 0,0 0,0 -2,0 -1,1 -2,0 0,1 -1,1 -1,1 -1,1 -1,0 0,-1 1,0 1,-3 -1,-2 0,0 -1,0 0,0 -1,-1 -1,-2 -1,-1 0,-1 0,-1 0,-2 1,0 1,1 0,1 0,0 0,0 1,1 0,2 0,0 0,1 0,1 1,0 1,1 1,-1 2,1 1,0 -2,-2 0,-1 0,-1 -1,-1 -2,0 -1,0 0,-2 0,0 0,1 -1,1 0,-1 1,0 0,-1 -1,0 0,-1 -1,0 -1,0 0,-1 1,0 0,-1 0,-1 1,0 1,-1 0,0 0,1 0,0 1,0 1,0 0,0 0,0 0,1 0,0 -1,1 1,1 0,1 1,1 1,0 0,1 0,0 -1,0 0,0 1,1 2,2 3,1 0,0 0,1 -1,0 -1,1 1,1 2,-1 z m -18,-34 0,-1 -1,1 -1,0 0,0 1,0 0,0 0,-2 1,-1 0,0 0,0 -1,0 0,0 0,0 0,-1 1,0 0,-1 1,0 1,0 0,1 -1,1 0,1 -1,1 -1,1 1,1 0,1 0,0 0,0 -1,1 0,0 0,0 -1,1 -1,0 -1,3 -1,1 0,0 -1,0 1,-5 0,0 0,1 1,0 0,0 1,0 z m -10,37 0,1 1,1 0,0 -1,0 0,0 -1,0 0,1 1,0 0,0 0,0 0,0 0,-1 -2,0 -1,-1 0,-1 0,0 1,0 0,-1 0,-2 0,0 0,0 1,1 2,-1 0,0 1,1 z m 5,-7 0,2 1,0 1,-1 0,0 0,1 -2,1 0,1 -1,0 0,1 0,0 0,-2 0,-1 0,0 -1,0 0,-1 1,0 0,-1 1,-1 0,-1 0,-1 0,1 0,1 z m 8,-8 0,0 0,0 -1,0 0,0 1,0 0,1 0,0 0,0 0,0 0,0 0,0 0,0 -1,2 -2,1 0,0 0,-1 0,0 0,0 0,-1 1,-1 0,-1 1,-1 1,-1 0,0 z m -13,13 1,1 0,1 -1,0 0,-1 0,0 z m 3,0 -1,0 0,-1 1,0 0,-1 0,0 1,1 0,1 0,0 z m 3,-10 0,0 0,0 -1,0 0,0 -1,0 0,0 0,0 1,0 0,0 0,0 z m -4,12 0,0 0,0 0,0 -1,-1 0,0 1,0 0,1 0,-1 0,0 0,0 0,1 0,0 0,0 z m 9,-13 1,-2 0,2 -1,0 0,0 z m 3,-3 0,0 -1,0 1,-1 1,0 0,0 z m -10,7 0,0 0,0 0,-1 0,0 1,0 0,1 -1,0 z" fill="rgba(92,61,26,.06)" stroke="#5C3D1A" stroke-width="0.7" stroke-linejoin="round"/>
<path d="m 244,278 1,2 0,1 0,1 0,1 0,0 1,0 1,0 0,1 1,0 0,1 0,1 -2,0 0,1 1,2 -1,0 1,1 -1,1 0,1 0,2 0,0 0,1 -2,0 -1,1 -1,0 -1,2 0,0 -2,0 -1,0 -1,0 -1,1 0,-1 0,0 1,-2 0,-1 -1,0 0,-1 -1,-1 0,-1 2,-1 0,-1 0,-1 1,0 1,0 0,-1 0,-1 -1,0 0,-2 0,-1 0,0 1,0 0,-1 0,-1 -1,-1 1,-1 0,0 0,0 1,-2 1,0 0,-1 0,0 0,0 1,1 2,1 1,0 1,-1 0,0 1,0 0,1 1,0 z" fill="rgba(92,61,26,.06)" stroke="#5C3D1A" stroke-width="0.7" stroke-linejoin="round"/>
<path d="m 287,219 2,-1 3,-3 2,-1 2,-4 1,-1 1,-1 1,-5 1,-1 4,-3 2,-1 2,-1 2,-2 1,-2 0,-2 0,-4 2,-4 0,0 2,1 1,0 0,0 0,2 1,1 2,0 1,1 -1,2 -1,1 -2,0 -1,1 0,1 0,1 0,1 -1,1 -1,3 1,1 1,0 0,0 0,1 0,0 -2,2 -1,1 0,0 -2,1 0,1 0,1 0,1 0,1 0,0 -1,0 0,0 0,0 0,0 0,0 0,1 -1,0 -1,0 -2,0 -1,1 1,1 0,1 0,1 -1,1 1,1 1,0 0,1 0,1 0,1 0,1 0,1 0,0 0,0 0,0 -1,0 0,-1 -2,-2 0,1 -1,1 -2,0 0,2 0,0 -1,0 0,1 0,0 -1,1 -1,0 0,1 -1,1 -1,0 0,1 0,0 0,0 0,0 0,0 1,-1 0,0 0,-1 -1,0 -1,-1 0,-2 0,-1 -1,0 -3,1 -1,2 -1,1 0,2 0,0 0,-1 -1,0 -1,1 -1,0 -1,1 -1,-1 1,-1 0,-1 -2,0 -1,0 0,1 -1,1 -1,1 0,0 -1,-2 0,-1 0,-1 0,-1 -1,0 -1,-1 0,0 5,-2 2,-1 1,0 1,-1 1,0 1,0 z m 5,-25 -1,1 0,1 1,0 2,-1 0,0 -1,4 -3,2 -1,0 -1,1 -1,0 0,0 1,-1 0,-1 0,-1 1,-1 0,-1 0,0 -1,-1 -1,0 -1,1 0,0 0,-1 0,0 0,0 0,-1 1,-1 1,-2 1,0 1,-1 1,0 0,-2 1,0 0,3 -1,1 z" fill="rgba(92,61,26,.06)" stroke="#5C3D1A" stroke-width="0.7" stroke-linejoin="round"/>
<path d="m 142,317 0,0 0,-1 -1,-1 0,-1 0,0 0,0 1,0 0,-1 0,-1 0,0 0,-1 0,0 0,-2 2,-1 1,0 1,0 2,0 0,0 0,-1 0,-1 0,0 0,0 0,0 2,1 3,0 0,0 1,-1 0,-1 2,0 2,1 1,2 0,1 0,2 0,0 0,1 -1,0 0,0 0,1 0,0 -1,0 0,1 -1,0 0,0 -1,0 0,1 0,2 2,1 2,-1 1,1 3,-1 -1,2 0,1 1,0 1,0 0,0 -1,0 0,1 1,0 0,0 0,-1 1,1 0,0 0,-1 0,0 0,1 0,0 -1,0 -1,1 0,0 1,0 0,0 1,0 0,0 2,0 0,0 -2,0 0,1 1,0 -1,1 1,1 -1,1 -1,0 0,2 0,0 -1,0 0,-2 -2,-1 -1,0 0,1 0,1 -2,0 -1,0 -1,0 0,0 0,0 -1,-1 -2,1 0,0 0,-1 0,0 -1,-1 0,-2 -1,-2 -1,-1 0,-1 -1,-1 -1,0 -1,1 0,1 1,1 0,1 0,1 0,0 0,-1 -1,0 -1,-1 -1,0 0,0 z" fill="rgba(92,61,26,.06)" stroke="#5C3D1A" stroke-width="0.7" stroke-linejoin="round"/>
<path d="m 205,282 -1,1 0,2 -2,-1 -1,0 -2,0 -1,-1 -2,0 0,0 0,0 -2,1 -1,-1 0,0 0,-2 -1,-2 0,-1 0,-2 0,-1 -2,-2 0,-2 0,-1 -1,-1 0,0 0,0 0,-1 0,0 2,-1 0,-1 0,0 1,0 1,0 0,0 0,0 1,0 1,-2 2,1 1,0 1,1 1,1 1,0 0,-1 1,0 0,0 2,0 0,1 0,0 1,0 1,0 1,1 0,0 0,1 0,0 0,1 1,1 1,-1 1,0 1,0 1,-1 0,0 0,0 0,1 1,1 0,1 -1,0 0,0 0,1 -1,0 0,1 -1,1 0,1 0,1 0,0 1,1 -1,1 0,0 1,1 1,1 0,0 0,0 0,0 -1,0 -2,2 0,1 -1,1 -1,0 -1,0 z m 5,3 0,0 1,-1 -1,0 -1,1 0,-1 0,0 0,0 0,0 -1,0 0,0 0,-1 4,-1 0,0 0,0 0,2 0,-1 0,0 z" fill="rgba(92,61,26,.06)" stroke="#5C3D1A" stroke-width="0.7" stroke-linejoin="round"/>
<path d="m 82,467 1,-1 2,-1 0,-1 -1,-1 -1,0 0,-1 0,0 0,-1 0,-1 1,0 1,0 1,0 0,0 0,1 0,0 1,0 1,-1 0,-1 1,0 0,0 1,-1 0,-1 0,-1 0,0 1,1 0,2 -2,3 -2,0 0,1 -1,0 1,1 -1,1 -1,0 0,1 -2,1 0,1 -2,0 -1,1 0,1 1,1 0,0 1,1 0,0 -1,-1 -1,0 -1,3 0,0 1,0 0,1 -2,1 0,1 -1,0 0,0 0,-3 1,-2 1,0 0,0 -1,-2 0,-1 0,0 0,0 2,-1 z m 35,-42 -1,1 -1,0 0,0 0,1 0,1 -1,1 0,1 0,0 0,0 0,1 -2,-1 0,0 0,-1 -2,0 -1,-1 2,0 0,0 0,0 1,-1 1,0 1,-1 1,0 1,-1 1,0 0,-1 0,0 1,0 0,-1 0,-1 1,0 1,0 0,1 0,0 0,0 1,-1 -1,-1 1,-1 0,1 0,0 0,1 -1,1 -1,0 0,1 z m -111,88 0,1 0,0 0,1 0,0 0,0 -1,0 -2,0 -1,0 0,0 -1,0 0,-1 1,-1 1,0 0,0 0,-1 0,0 1,-1 1,1 1,0 1,1 z m 99,-76 0,1 1,1 -1,2 -1,0 -1,-1 1,-1 -1,-2 0,-1 1,0 0,1 z m -95,74 1,0 0,0 1,-1 0,0 0,-1 0,0 1,-1 0,0 1,0 0,1 -1,1 0,0 -1,0 0,0 -1,1 0,1 0,1 -2,0 0,0 -1,0 0,0 0,-1 -1,0 0,0 0,0 0,-1 1,0 0,-1 1,1 z m 21,-7 0,0 0,0 0,0 -1,-1 0,0 0,-1 -1,-1 0,0 1,2 0,1 2,1 0,1 -3,0 -1,0 0,0 z m 67,-57 -1,1 -1,0 -1,-1 0,-1 0,0 1,0 2,-1 0,0 -2,2 z m 12,-18 0,0 0,-1 1,1 1,0 0,0 0,1 0,0 -1,-1 0,1 -1,-1 -1,1 0,-1 -1,0 0,-1 1,0 0,0 0,0 0,0 z m -48,40 -1,0 0,0 1,0 1,1 0,0 0,1 -1,0 0,0 z m 64,-45 -1,2 -1,0 0,0 0,-1 1,0 1,-1 0,0 z m -96,78 0,-1 0,0 0,-1 1,0 0,1 -1,0 0,0 z m 55,-48 1,-1 0,0 -1,1 -1,1 1,-1 z m -3,7 0,1 -1,0 0,0 0,0 1,0 z m -9,11 0,0 0,1 0,0 0,0 0,0 0,-1 0,-1 z m 11,-16 0,0 0,0 0,0 -1,-1 1,0 z m -78,59 1,0 0,1 0,0 0,0 z m 65,-43 0,0 0,0 0,0 1,-1 z" fill="rgba(92,61,26,.06)" stroke="#5C3D1A" stroke-width="0.7" stroke-linejoin="round"/>
<path d="m 232,283 0,-1 -1,0 0,-1 0,-1 1,0 0,0 0,0 1,-1 0,-1 -1,-1 0,-2 0,0 1,-1 -1,0 -1,-1 0,0 0,-1 0,0 0,0 0,0 0,0 0,1 2,1 0,1 0,0 1,1 1,0 0,0 0,-1 1,0 0,1 1,1 0,1 1,1 0,1 0,0 0,0 0,1 -1,0 -1,2 0,0 0,0 -1,1 1,1 0,1 0,1 -1,0 0,0 -1,0 -1,1 -2,0 -2,1 -2,0 -1,1 -1,0 0,0 0,-1 0,0 0,0 3,-1 2,-2 1,-1 1,-1 z" fill="rgba(92,61,26,.06)" stroke="#5C3D1A" stroke-width="0.7" stroke-linejoin="round"/>
<path d="m 121,312 1,1 0,-1 0,0 1,-1 -2,-1 0,0 0,0 0,0 0,0 0,1 0,0 -1,-1 0,0 1,0 0,-1 1,0 0,0 0,0 1,0 0,0 1,1 -1,1 1,1 1,0 0,0 0,0 0,0 3,0 1,0 1,0 0,0 2,1 1,0 1,1 1,-1 1,0 0,0 0,2 -1,0 -1,1 -2,1 -1,1 0,1 0,0 -1,0 0,-1 -1,-1 0,1 -2,1 2,3 0,0 0,0 0,0 -3,-1 -2,-2 -1,-1 0,0 1,0 0,0 0,-1 -1,0 -1,-1 0,-1 -1,-1 1,-1 0,0 0,0 z m -2,-9 -1,0 0,-1 0,0 0,-1 0,0 0,0 1,-1 1,0 0,1 1,0 -1,0 1,0 0,1 -1,0 0,1 z m 0,7 0,-1 1,1 -1,0 0,0 0,0 0,0 0,0 z" fill="rgba(92,61,26,.06)" stroke="#5C3D1A" stroke-width="0.7" stroke-linejoin="round"/>
<path d="m 297,250 0,-1 -1,-1 0,0 0,0 1,-1 1,0 1,-1 2,0 0,-1 2,0 0,-1 0,-1 1,-2 1,0 2,1 1,0 1,0 1,0 2,1 3,0 1,0 0,0 0,-1 0,0 1,0 0,0 0,1 1,2 0,0 0,0 0,0 1,1 0,1 2,3 0,1 0,0 0,0 -1,0 0,0 -1,0 0,0 0,1 -2,0 -1,1 -1,0 -1,0 0,-1 -2,1 -1,0 -1,-1 -1,0 0,-1 -2,0 -1,-1 -2,0 -1,-1 -1,1 0,0 0,0 -1,0 -1,-1 -1,0 0,-1 z" fill="rgba(92,61,26,.06)" stroke="#5C3D1A" stroke-width="0.7" stroke-linejoin="round"/>
<path d="m 252,267 0,1 1,1 -1,2 0,1 -1,1 0,1 -2,1 -1,-1 -1,0 0,0 0,0 0,0 1,0 0,0 -1,1 0,1 -1,1 0,0 0,0 0,0 -1,-1 0,0 0,0 0,0 0,-1 -1,0 -1,0 0,-1 -1,-2 0,-1 0,0 0,-2 0,-2 0,-1 0,0 -1,-2 0,0 0,-1 0,0 0,0 1,0 0,0 1,0 1,-3 1,1 0,0 0,-1 1,0 0,-1 1,0 0,-1 -1,-2 0,-1 1,0 2,1 0,0 0,1 1,0 0,2 1,0 0,0 1,1 0,1 1,1 0,1 1,1 -1,0 0,1 0,1 0,1 0,0 z" fill="rgba(92,61,26,.06)" stroke="#5C3D1A" stroke-width="0.7" stroke-linejoin="round"/>
<path d="m 171,271 0,-1 1,-1 0,-1 0,-1 3,-2 1,-1 1,-1 0,-1 0,-2 -1,0 0,0 1,0 0,0 1,0 0,0 -1,0 1,0 0,0 2,-1 1,0 0,-1 1,0 0,-1 1,-1 1,1 1,0 0,0 2,0 -1,0 0,1 0,1 1,1 0,0 0,2 0,1 0,2 -3,1 0,0 1,0 0,1 -1,1 0,2 0,0 -1,0 -1,0 -1,-1 -1,1 -1,-1 0,0 -2,3 -1,0 -1,1 0,0 1,0 0,1 -2,0 -1,1 -2,0 0,0 0,0 0,0 -1,0 -1,0 -1,0 0,0 0,0 -1,0 0,1 -1,1 0,0 1,0 -1,1 0,2 -1,1 -1,0 0,1 0,1 0,0 -1,0 0,1 0,0 0,1 -1,2 -1,-1 -1,1 -1,0 -1,-1 0,-1 1,-2 -2,0 -1,-2 1,-1 0,-1 0,0 -1,-3 0,0 1,0 2,0 1,-2 1,-1 0,-1 1,0 1,-1 1,-1 3,-2 2,-1 z m 18,-27 0,0 0,0 0,-1 0,0 0,-1 1,-1 1,0 1,0 1,1 0,2 0,0 0,-1 0,0 -1,0 1,0 0,1 0,0 -2,0 0,0 0,0 z m -46,-33 0,0 0,0 0,0 0,1 -1,1 -1,-1 0,-1 1,0 1,0 z m 43,34 0,0 0,0 -1,0 0,0 0,1 0,0 0,-1 0,0 0,0 0,1 -1,-1 1,-1 1,0 0,0 1,0 1,0 z m 1,1 -1,1 0,-1 0,-1 0,0 0,0 0,0 0,0 0,0 0,1 z m -3,1 1,1 0,0 -1,0 0,-1 z" fill="rgba(92,61,26,.06)" stroke="#5C3D1A" stroke-width="0.7" stroke-linejoin="round"/>
<path d="m 305,275 -1,2 -1,1 0,1 0,1 0,0 0,0 0,0 0,1 -1,1 0,0 -1,-1 0,0 0,0 -1,0 0,-1 1,-1 0,-1 0,0 0,-2 1,-1 -1,-2 0,-1 2,0 0,-1 -2,-2 -2,-1 -3,1 -1,2 0,0 0,1 -3,2 -1,1 0,1 -1,1 -2,1 -1,1 0,1 1,1 0,0 -4,-2 -2,0 -2,0 -3,-1 -4,0 0,0 0,-2 0,-1 3,-2 1,-2 0,-1 1,-2 0,0 0,0 1,-1 -1,0 0,-1 0,0 1,0 0,-1 1,0 0,0 1,-1 1,-1 2,-1 0,-1 -1,-1 0,-1 1,0 0,-1 0,-1 0,0 1,-1 0,0 1,-2 0,0 1,3 0,1 0,1 0,1 0,1 1,1 1,-1 1,0 1,3 1,0 1,0 1,-1 0,-3 0,-1 0,-2 1,-1 1,1 1,0 0,1 3,0 0,0 1,0 1,0 0,0 2,0 0,0 0,2 0,1 -1,1 0,2 1,1 0,1 2,0 0,0 -1,1 0,1 1,0 0,1 1,1 0,2 z" fill="rgba(92,61,26,.06)" stroke="#5C3D1A" stroke-width="0.7" stroke-linejoin="round"/>
<path d="m 327,225 0,2 0,1 0,1 1,1 0,0 -1,0 0,0 1,2 0,2 -1,2 0,1 -1,0 0,0 0,0 0,0 -1,0 0,1 0,0 -2,0 0,0 -1,0 0,1 -1,0 -1,2 -2,1 -1,0 0,0 -1,0 0,0 -1,-1 0,0 0,0 -1,0 -1,0 -1,0 -1,-1 0,-1 -1,-1 0,-1 1,-2 0,-1 0,-1 1,-1 0,-1 -1,0 -1,-1 0,-1 1,-1 0,-1 1,-1 -1,0 1,-2 0,0 1,0 1,-1 1,0 1,-1 1,0 0,0 1,0 0,0 3,-1 0,-1 1,-1 2,0 2,1 1,1 0,1 1,0 0,2 z" fill="rgba(92,61,26,.06)" stroke="#5C3D1A" stroke-width="0.7" stroke-linejoin="round"/>
<path d="m 218,300 -2,1 -1,1 0,1 -1,1 -1,1 -1,0 -1,2 -1,0 0,0 0,0 0,0 0,0 -2,0 -1,-1 0,0 0,-1 0,-1 -2,0 0,-2 -1,-1 -1,0 0,0 0,0 0,1 -1,0 -1,0 -1,-1 -2,0 -1,-1 0,-1 0,0 1,-1 0,-1 0,0 0,-1 0,0 1,0 0,-1 1,-1 1,0 0,0 1,0 1,0 1,1 0,0 1,-1 1,0 0,0 0,0 1,-1 2,0 2,0 0,0 1,1 0,0 0,-1 0,0 3,-1 0,1 1,0 -1,3 0,1 0,1 0,-1 1,1 1,0 -1,0 1,0 0,0 -1,1 0,0 0,0 2,0 0,0 0,0 z" fill="rgba(92,61,26,.06)" stroke="#5C3D1A" stroke-width="0.7" stroke-linejoin="round"/>
<path d="m 310,279 -1,0 0,0 0,-1 0,0 1,0 1,1 0,2 -1,0 z m -2,6 0,2 0,0 0,-1 1,-1 z m -1,2 0,0 -1,0 0,0 z m 12,-31 -1,0 0,-1 0,0 0,2 0,1 0,0 0,1 -1,0 -1,0 0,0 0,0 0,0 0,-1 -3,-1 -1,1 0,0 0,0 1,1 0,2 0,0 -1,-2 -2,-1 -1,0 -1,-1 -1,0 0,-1 -1,0 0,0 -2,-1 -2,-3 0,0 0,0 1,-1 1,1 2,0 1,1 2,0 0,1 1,0 1,1 1,0 2,-1 0,1 1,0 1,0 1,-1 2,0 0,-1 0,0 1,0 0,0 1,0 0,0 1,2 0,0 0,1 -1,0 0,0 -1,1 -1,0 z m -6,38 0,0 0,-1 -1,-1 -1,0 0,1 0,1 1,0 1,0 z m 4,23 1,1 0,-1 0,0 0,-1 -1,0 -1,-1 0,0 0,1 0,1 0,0 0,1 z m 0,0 1,1 0,-1 0,0 0,-1 -1,0 -1,-1 0,0 0,1 0,1 0,0 0,1 z" fill="rgba(92,61,26,.06)" stroke="#5C3D1A" stroke-width="0.7" stroke-linejoin="round"/>
<path d="m 191,261 1,0 0,0 0,-1 1,0 2,0 1,1 2,0 3,0 1,0 1,0 2,0 3,-1 1,-1 1,0 0,0 1,0 0,0 1,1 0,1 0,1 0,2 1,0 0,1 1,1 0,0 0,1 -2,1 -1,0 0,0 0,0 -1,1 -1,0 -1,0 -1,1 -1,-1 0,-1 0,0 0,-1 0,0 -1,-1 -1,0 -1,0 0,0 0,-1 -2,0 0,0 -1,0 0,1 -1,0 -1,-1 -1,-1 -1,0 -2,-1 -1,2 -1,0 0,0 0,0 -1,0 -1,0 0,0 0,1 -2,1 0,0 0,1 0,0 0,0 0,0 -2,0 0,0 0,0 0,-2 1,-1 0,-1 -1,0 0,0 3,-1 0,-2 0,-1 0,-2 z" fill="rgba(92,61,26,.06)" stroke="#5C3D1A" stroke-width="0.7" stroke-linejoin="round"/>
<path d="m 266,229 1,1 1,0 2,0 1,-1 0,-1 0,-1 0,-1 1,-1 3,-1 0,0 1,1 1,0 0,1 0,1 0,1 1,2 0,0 0,4 -1,1 0,1 0,0 0,0 -1,0 0,1 0,1 0,1 -1,1 0,0 -1,0 -1,-1 -1,0 -1,0 0,-1 -1,1 0,0 0,-1 -1,0 -1,1 0,0 -1,0 -2,2 0,1 -1,1 0,0 0,-1 0,-1 -1,-1 0,0 0,-1 -1,1 0,1 -1,0 0,0 0,-1 0,0 0,-2 1,-3 0,-1 0,-1 1,-1 0,0 0,-1 1,-1 1,-3 1,-1 1,0 1,0 0,0 -1,2 1,2 1,0 z" fill="rgba(92,61,26,.06)" stroke="#5C3D1A" stroke-width="0.7" stroke-linejoin="round"/>
<path d="m 240,307 -1,0 0,1 0,1 0,0 0,0 0,-1 -1,0 -2,-1 -2,0 -2,-1 0,-1 0,-1 -1,-1 1,-1 0,-1 -1,-1 -3,-1 -1,-1 -1,0 -1,0 0,-2 2,-1 0,-1 -1,-1 -1,0 1,-1 0,-1 1,0 0,0 0,-1 -1,0 0,-1 -1,-1 0,0 0,0 0,0 0,0 0,1 0,0 1,0 1,-1 2,0 2,-1 2,0 1,-1 1,0 0,0 0,1 0,2 1,0 0,1 0,1 -1,0 -1,0 0,1 0,1 -1,1 0,1 1,1 0,1 1,0 0,1 -1,2 0,0 0,1 1,-1 1,0 1,0 2,0 0,0 0,2 2,2 1,0 0,0 0,0 0,1 -1,0 0,1 1,0 0,0 -2,1 -1,0 z" fill="rgba(92,61,26,.06)" stroke="#5C3D1A" stroke-width="0.7" stroke-linejoin="round"/>
<path d="m 328,199 0,2 0,2 1,0 -1,2 -1,0 -1,1 -1,-1 -1,0 -1,-2 0,0 -1,0 -1,0 -1,1 -1,-1 -1,0 0,0 0,-1 0,0 -1,0 -1,-1 1,-3 1,-1 0,-1 0,-1 0,-1 1,-1 2,0 1,-1 1,-2 -1,-1 -2,0 -1,-1 0,-2 0,0 -1,0 -2,-1 0,0 1,-3 2,-2 1,-2 1,-4 1,-1 1,-3 0,-1 0,0 3,0 0,0 1,0 0,1 1,0 1,1 3,1 1,0 0,1 1,0 1,2 2,1 0,0 0,0 0,0 1,1 0,1 1,0 -1,1 0,1 0,1 0,0 -1,0 0,0 1,1 0,1 0,1 0,1 1,0 0,1 -1,2 -1,1 0,1 -1,1 0,1 0,1 -1,2 0,1 -1,1 -2,0 0,2 z" fill="rgba(92,61,26,.06)" stroke="#5C3D1A" stroke-width="0.7" stroke-linejoin="round"/>
<path d="m 155,295 -1,0 0,1 -1,0 0,0 0,-1 0,0 -1,1 -2,1 -2,-1 0,-1 -2,-1 -1,0 0,1 -2,2 0,-1 0,-1 0,-2 -1,-2 0,-1 1,0 1,-1 0,-1 -1,-1 0,0 0,-1 3,0 0,0 -1,0 0,-1 1,1 1,0 1,0 1,1 3,0 1,-1 1,0 1,-2 0,-1 0,-1 1,0 1,-1 0,0 0,-1 0,0 0,-1 0,0 1,0 0,0 0,0 1,3 0,0 0,1 -1,1 1,2 2,0 -1,2 0,1 1,1 1,0 1,-1 1,1 1,-2 0,-1 0,0 0,-1 1,0 0,0 0,1 0,1 0,1 1,1 0,1 0,1 1,0 0,0 0,0 0,0 0,1 0,0 -1,1 0,3 -1,1 -1,0 0,2 1,1 0,1 0,-1 -1,-1 0,0 -4,-3 0,1 0,1 -1,0 1,-1 -1,-1 -1,0 -2,1 -2,1 -1,-1 z m 15,4 -1,0 -1,0 -1,-1 0,-1 1,-1 1,1 1,0 1,-1 1,0 -1,1 -1,0 0,0 0,1 -1,0 0,-1 0,0 -1,0 0,1 z" fill="rgba(92,61,26,.06)" stroke="#5C3D1A" stroke-width="0.7" stroke-linejoin="round"/>
<path d="m 305,256 0,3 0,1 0,1 -1,0 0,1 -2,1 0,1 0,0 -1,0 -1,0 0,0 -3,0 0,-1 -1,0 -1,-1 -1,1 0,2 0,1 0,3 -1,1 -1,0 -1,0 -1,-3 -1,0 -1,1 -1,-1 0,-1 0,-1 0,-1 0,-1 -1,-3 0,0 -1,-2 1,-1 -1,-1 1,-2 0,0 1,1 2,-3 1,1 0,1 0,1 0,0 0,0 2,0 1,1 1,0 1,-1 0,0 0,0 1,0 0,1 1,0 1,1 1,0 0,0 2,3 z" fill="rgba(92,61,26,.06)" stroke="#5C3D1A" stroke-width="0.7" stroke-linejoin="round"/>
</svg>